<svg width="853.29744" height="818" xmlns="http://www.w3.org/2000/svg" xmlns:xlink="http://www.w3.org/1999/xlink">
 <defs>
  <linearGradient y2="0.5" x2="1" y1="0.5" x1="0" id="fe5e6308-1e89-4ce8-8c8d-e7ed4a72d158">
   <stop stop-color="#fff" offset="0"/>
   <stop stop-opacity="0.3" stop-color="#fff" offset="1"/>
  </linearGradient>
  <linearGradient xlink:href="#fe5e6308-1e89-4ce8-8c8d-e7ed4a72d158" y2="535.45364" x2="718.08381" y1="535.45364" x1="631.27384" id="b0adbdce-87b5-465c-b00c-1cf2f5493111"/>
 </defs>
 <g>
  <title>background</title>
  <rect fill="none" id="canvas_background" height="602" width="802" y="-1" x="-1"/>
 </g>
 <g>
  <title>Layer 1</title>
  <path id="svg_1" fill="#f70776" d="m707.50121,466.2494c-107.71702,162.99347 -158.37949,353.7506 -353.7506,353.7506s-353.75061,-158.37954 -353.75061,-353.7506s176.53511,-271.50391 353.75061,-353.75061c575.60611,-267.14201 594.77303,-10.95579 353.7506,353.75061z"/>
  <circle transform="rotate(1, 669.522, 94.2219)" id="svg_2" fill="#650e36" r="66.1926" cy="94.22192" cx="669.52185"/>
  <circle id="svg_3" fill="#f70776" r="7.59587" cy="48.64669" cx="663.0111"/>
  <circle id="svg_4" fill="#f70776" r="7.59586" cy="123.69632" cx="676.0326"/>
  <circle id="svg_5" fill="#f70776" r="5.42562" cy="82.28555" cx="705.33096"/>
  <circle id="svg_6" fill="#f70776" r="17.36199" cy="99.64754" cx="643.47886"/>
  <circle id="svg_7" fill="#f70776" r="10.85125" cy="196.22363" cx="441.64569"/>
  <circle id="svg_8" fill="#f70776" r="10.85125" cy="224.43687" cx="732.45907"/>
  <circle id="svg_9" fill="#e6e6e6" r="6.51075" cy="245.05424" cx="603.32925"/>
  <circle id="svg_10" fill="#e6e6e6" r="6.51075" cy="450.14278" cx="102.00171"/>
  <circle id="svg_11" fill="#e6e6e6" r="6.51075" cy="624.84783" cx="487.22092"/>
  <polygon id="svg_12" fill="#f70776" points="589.224 438.245 585.975 441.473 582.747 438.223 580.581 440.375 583.808 443.625 580.558 446.852 582.71 449.019 585.96 445.791 589.188 449.041 591.354 446.889 588.126 443.639 591.376 440.412 589.224 438.245"/>
  <polygon id="svg_13" fill="#e6e6e6" points="158.43 544.588 155.18 547.815 151.953 544.565 149.786 546.717 153.014 549.967 149.764 553.194 151.916 555.361 155.165 552.133 158.393 555.383 160.56 553.231 157.332 549.982 160.582 546.754 158.43 544.588"/>
  <polygon id="svg_14" fill="#e6e6e6" points="184.473 355.776 181.223 359.003 177.996 355.754 175.829 357.905 179.057 361.155 175.807 364.383 177.959 366.549 181.208 363.322 184.436 366.571 186.603 364.42 183.375 361.17 186.625 357.942 184.473 355.776"/>
  <polygon id="svg_15" fill="#e6e6e6" points="751.993 155.028 748.743 158.255 745.516 155.006 743.349 157.157 746.577 160.407 743.327 163.635 745.479 165.801 748.729 162.574 751.956 165.823 754.123 163.672 750.895 160.422 754.145 157.194 751.993 155.028"/>
  <polygon id="svg_16" fill="#e6e6e6" points="495.904 245.093 492.654 248.321 489.426 245.071 487.26 247.223 490.487 250.472 487.238 253.7 489.389 255.867 492.639 252.639 495.867 255.889 498.033 253.737 494.806 250.487 498.055 247.26 495.904 245.093"/>
  <path id="svg_17" fill="url(#fe5e6308-1e89-4ce8-8c8d-e7ed4a72d158)" opacity="0.8" d="m518.44207,405.99143l32.97058,-38.59855l32.97057,-38.59855l18.61242,-21.7895c1.02981,-1.2056 -0.55938,-3.08643 -1.58915,-1.88088l-32.97057,38.59855l-32.97057,38.59855l-18.61242,21.78951c-1.02982,1.2056 0.55937,3.08642 1.58914,1.88087z"/>
  <path id="svg_18" fill="url(#b0adbdce-87b5-465c-b00c-1cf2f5493111)" opacity="0.8" d="m459.84535,544.88737l32.97057,-38.59855l32.97057,-38.59855l18.61242,-21.7895c1.02981,-1.2056 -0.55937,-3.08643 -1.58915,-1.88087l-32.97057,38.59855l-32.97057,38.59855l-18.61242,21.7895c-1.02981,1.2056 0.55937,3.08643 1.58915,1.88087z"/>
  <path id="svg_19" fill="#042e2f" d="m293.52619,331.32164l61.8521,0a0,0 0 0 1 0,0l0,24.33858a15.811,15.811 0 0 1 -15.811,15.811l-30.23007,0a15.811,15.811 0 0 1 -15.811,-15.811l0,-24.33858a0,0 0 0 1 -0.00003,0z"/>
  <path id="svg_20" fill="#e6e6e6" d="m375.99567,654.68875c-14.0849,14.27061 -28.19145,14.366 -42.31946,0.46l-10.85164,-95.95094l-7.59584,96.15146c-14.11847,11.42686 -27.27574,12.96547 -39.06448,0.42461c-11.24565,-83.07535 -17.35815,-160.2537 -7.59587,-219.19516l-20.61737,-83.55459l46.66036,-21.70249c9.39634,23.24307 -5.42324,35.1313 28.08839,34.73339c33.21631,-0.39441 30.73557,-12.88943 29.42321,-34.73339l42.92319,16.50892a15.38272,15.38272 0 0 1 9.14663,18.98963l-21.68633,68.6734c8.34867,34.66687 -0.22337,131.10079 -6.51079,219.19516z"/>
  <path id="svg_21" fill="#042e2f" d="m310.8882,738.24335s-34.64058,3.03439 -39.281,1.12362l0,0q-0.43935,-0.18092 -0.85525,-0.39352c-6.89625,-3.52114 -7.10638,-13.3821 -0.66091,-17.67309l13.66907,-9.1l-11.93638,-64.02236l46.1178,0.54256l-7.05333,89.52279z"/>
  <path id="svg_22" fill="#042e2f" d="m336.93119,738.78591s34.64057,3.03439 39.281,1.12363l0,0q0.43935,-0.18092 0.85525,-0.39352c6.89625,-3.52114 7.10638,-13.3821 0.66091,-17.67309l-13.66907,-9.1l16.81945,-64.02236l-48.288,0l4.34046,90.06534z"/>
  <path id="svg_23" fill="#e6e6e6" d="m255.54684,510.36719l6.86638,27.46551a16.55029,16.55029 0 0 1 -7.20087,17.996l0,0a16.55029,16.55029 0 0 1 -25.30968,-12.20314l-1.48394,-13.72613l-5.42562,-130.45524a54.87781,54.87781 0 0 1 33.85878,-50.69295l10.63132,-4.40811l-11.93637,166.02406z"/>
  <path id="svg_24" fill="#e6e6e6" d="m428.08165,398.3606l-0.03259,0.77046l-4.38388,105.30046l-0.84636,20.34609l-0.16279,4.0367l-1.48662,13.72678a16.55048,16.55048 0 1 1 -32.51036,-5.79453l6.86886,-27.4645l-0.15193,-2.04l-0.91147,-12.76107l-10.87297,-151.22299l10.63421,4.4056a54.9579,54.9579 0 0 1 33.8559,50.697z"/>
  <path id="svg_25" fill="#2f2e41" d="m327.22547,518.19089c-39.41736,0 -63.732,-13.67 -64.07587,-13.86818l1.0846,-1.8799c0.48428,0.27976 49.24918,27.63359 120.8939,3.923l0.68244,2.06a185.89809,185.89809 0 0 1 -58.58507,9.76508z"/>
  <path id="svg_26" fill="#2f2e41" d="m288.19383,618.23535c-8.67463,-19.51846 -8.71861,-104.3521 -8.716,-107.954l2.17025,0.00212c-0.00053,0.87743 0.04026,87.97033 8.52946,107.07022l-1.98371,0.88166z"/>
  <path id="svg_27" fill="#2f2e41" d="m292.706,619.11066c-7.72727,0 -12.86148,-1.6457 -16.20852,-3.533c-6.09428,-3.43658 -7.35161,-8.11936 -7.40194,-8.31646l2.10242,-0.53832l-1.05121,0.26916l1.04962,-0.27446c0.044,0.16425 1.14129,4.06286 6.46307,7.02364c5.85956,3.25855 17.65446,5.69054 40.55865,-1.2356l0.62733,2.077c-10.96145,3.31469 -19.50575,4.52804 -26.13942,4.52804z"/>
  <rect id="svg_28" fill="#2f2e41" transform="rotate(-2.80385, -195.692, -18.4396)" height="170.16399" width="2.17072" y="364.18579" x="252.97534"/>
  <path id="svg_29" fill="#2f2e41" d="m361.7958,618.23535l-1.98375,-0.88166c8.4892,-19.09989 8.53052,-106.19279 8.52946,-107.07022l2.17025,-0.00212c0.00212,3.6019 -0.04132,88.43554 -8.71596,107.954z"/>
  <path id="svg_30" fill="#2f2e41" d="m357.28363,619.11066c-6.63367,0 -15.17585,-1.21229 -26.13942,-4.52807l0.62734,-2.077c22.90418,6.92508 34.69643,4.49521 40.55865,1.2356c5.32177,-2.96078 6.41855,-6.85939 6.462,-7.02364l2.10137,0.54362c-0.05087,0.1971 -1.30766,4.87988 -7.40195,8.31646c-3.34651,1.88737 -8.48284,3.53303 -16.20799,3.53303z"/>
  <rect id="svg_31" fill="#2f2e41" transform="rotate(-87.2019, -120.261, 950.163)" height="2.17072" width="170.16399" y="1416.7849" x="341.59636"/>
  <polygon id="svg_32" fill="#f70776" points="355.248 367.131 339.101 391.003 304.377 391.003 292.767 367.131 297.867 367.131 306.548 386.663 335.846 386.663 349.953 367.131 355.248 367.131"/>
  <polygon id="svg_33" points="394.443 379.067 394.725 379.631 394.443 380.152 394.443 379.067"/>
  <path id="svg_34" fill="#042e2f" d="m431.2519,398.3606l-0.03259,0.77046l-20.58478,5.97905l-12.73935,-25.47877l13.03236,-23.8944a54.80994,54.80994 0 0 1 20.32436,42.62366z"/>
  <path id="svg_35" fill="#042e2f" d="m221.65829,398.3606l0.03259,0.77046l20.58478,5.97905l12.73935,-25.47877l-13.03236,-23.8944a54.80994,54.80994 0 0 0 -20.32436,42.62366z"/>
  <circle id="svg_36" fill="#e6e6e6" r="57.5116" cy="291.71459" cx="324.45224"/>
  <circle id="svg_37" fill="#011014" r="42.31986" cy="299.31046" cx="324.45224"/>
  <polygon id="svg_38" fill="#042e2f" points="424.284 504.432 423.403 524.778 395.571 509.825 394.849 507.242 393.9 494.481 424.284 504.432"/>
  <polygon id="svg_39" fill="#042e2f" points="226.324 504.432 227.25 524.778 256.503 509.825 257.263 507.242 258.26 494.481 226.324 504.432"/>
  <polygon id="svg_40" fill="#2f2e41" points="339.678 392.089 303.698 392.089 283.777 351.139 282.753 336.41 284.918 336.26 285.913 350.568 305.057 389.918 338.525 389.918 363.075 353.628 368.301 337.605 370.366 338.277 364.958 354.718 339.678 392.089"/>
 </g>
</svg>