<svg width="1041.32" height="554.17" xmlns="http://www.w3.org/2000/svg">
 <defs>
  <linearGradient y2="-0.00078" x2="0.49992" y1="1" x1="0.49992" id="dff037aa-d578-4bab-81e7-399360663117">
   <stop stop-opacity="0.25" stop-color="gray" offset="0"/>
   <stop stop-opacity="0.12" stop-color="gray" offset="0.54"/>
   <stop stop-opacity="0.1" stop-color="gray" offset="1"/>
  </linearGradient>
 </defs>
 <title>programming</title>
 <g>
  <title>background</title>
  <rect fill="none" id="canvas_background" height="602" width="802" y="-1" x="-1"/>
 </g>
 <g>
  <title>Layer 1</title>
  <rect id="svg_9" fill="#3f3d56" height="57.66" width="19" y="265.83" x="211.6"/>
  <rect id="svg_10" fill="#3f3d56" height="61" width="19" y="262.83" x="722.93"/>
  <polygon id="svg_11" fill="#65617d" points="863.1 533.65 863.1 546.65 711.18 548.05 709.56 548.08 651.82 548.61 650.44 548.63 632.89 548.78 632.37 548.78 525.39 549.77 349.78 551.4 349.63 551.4 304.98 551.82 304.5 551.83 106.1 553.65 106.1 538.65 152.75 510.65 246.35 509.87 248.35 509.86 249.01 509.85 251.01 509.82 295.95 509.45 297.96 509.44 298.6 509.43 300.6 509.42 315.01 509.3 315.39 509.29 350.94 508.99 351.23 508.99 628.63 506.65 635.42 506.6 636.1 506.6 641.28 506.55 678.93 506.24 680.93 506.21 682.78 506.19 683.74 506.19 695.45 506.1 697.77 506.07 700.88 506.05 710.63 505.96 726.1 505.83 728.1 505.81 731.58 505.79 732.23 505.79 806.94 505.15 863.1 533.65"/>
  <polygon id="svg_12" opacity="0.2" points="863.1 533.65 863.1 546.65 711.18 548.05 709.56 548.08 651.82 548.61 650.44 548.63 632.89 548.78 632.37 548.78 525.39 549.77 349.78 551.4 349.63 551.4 304.98 551.82 304.5 551.83 106.1 553.65 106.1 538.65 152.75 510.65 246.35 509.87 248.35 509.86 249.01 509.85 251.01 509.82 295.95 509.45 297.96 509.44 298.6 509.43 300.6 509.42 315.01 509.3 315.39 509.29 350.94 508.99 351.23 508.99 628.63 506.65 635.42 506.6 636.1 506.6 641.28 506.55 678.93 506.24 680.93 506.21 682.78 506.19 683.74 506.19 695.45 506.1 697.77 506.07 700.88 506.05 710.63 505.96 726.1 505.83 728.1 505.81 731.58 505.79 732.23 505.79 806.94 505.15 863.1 533.65"/>
  <path id="svg_13" fill="#3f3d56" d="m296.1,483.66l0,24.49a6.13,6.13 0 0 1 -3.5,5.54a6,6 0 0 1 -2.5,0.6l-34.9,0.74a6,6 0 0 1 -2.7,-0.57a6.12,6.12 0 0 1 -3.57,-5.57l0,-25.23l47.17,0z"/>
  <path id="svg_14" opacity="0.1" d="m296.1,483.66l0,24.49a6.13,6.13 0 0 1 -3.5,5.54a6,6 0 0 1 -2.5,0.6l-34.9,0.74a6,6 0 0 1 -2.7,-0.57a6.12,6.12 0 0 1 -3.57,-5.57l0,-25.23l47.17,0z"/>
  <path id="svg_15" fill="#3f3d56" d="m298.1,483.66l0,24.49a6.13,6.13 0 0 1 -3.5,5.54a6,6 0 0 1 -2.5,0.6l-34.9,0.74a6,6 0 0 1 -2.7,-0.57a6.12,6.12 0 0 1 -3.57,-5.57l0,-25.23l47.17,0z"/>
  <rect id="svg_16" fill="#3f3d56" height="31.5" width="47.17" y="483.66" x="680.93"/>
  <rect id="svg_17" opacity="0.1" height="31.5" width="47.17" y="483.66" x="680.93"/>
  <rect id="svg_18" fill="#3f3d56" height="31.5" width="47.17" y="483.66" x="678.93"/>
  <polygon id="svg_19" opacity="0.1" points="230.6 265.82 230.6 271.55 211.6 271.06 211.6 265.82 230.6 265.82"/>
  <path id="svg_20" fill="#65617d" d="m355.66,104.4l-22.83,164a4.3,4.3 0 0 1 -4.37,3.71l-182.8,-4.74l-3.47,-0.09a4.3,4.3 0 0 1 -4.16,-4.87l25.63,-171.68a4.3,4.3 0 0 1 4.54,-3.63l183.46,12.42a4.29,4.29 0 0 1 4,4.88z"/>
  <polygon id="svg_21" fill="#f70776" points="175.93 99.16 156.6 250.49 324.6 255.82 345.26 109.82 175.93 99.16"/>
  <rect id="svg_22" fill="#65617d" ry="5.33" rx="5.33" height="173.33" width="204.67" y="96.82" x="384.6"/>
  <rect id="svg_23" fill="#f70776" height="144.33" width="186" y="108.49" x="394.26"/>
  <polygon id="svg_24" opacity="0.1" points="741.93 262.82 741.93 266.61 722.93 267 722.93 262.82 741.93 262.82"/>
  <path id="svg_25" fill="#65617d" d="m827.66,259.62a3.08,3.08 0 0 1 -3,3.28l-187.2,3.87a3.08,3.08 0 0 1 -3.13,-2.79l-16.09,-167.28a3.08,3.08 0 0 1 2.92,-3.37l185.78,-9.24l2,-0.1a3.07,3.07 0 0 1 3.22,2.8l15.5,172.83z"/>
  <polygon id="svg_26" fill="#f70776" points="628.93 103.16 798.6 94.82 812.93 246.82 644.6 250.82 628.93 103.16"/>
  <path id="svg_27" opacity="0.1" d="m827.66,259.62a3.08,3.08 0 0 1 -3,3.28l-17.72,-178.81l2,-0.1a3.07,3.07 0 0 1 3.22,2.8l15.5,172.83z"/>
  <path id="svg_28" opacity="0.1" d="m168.23,87.09l-22.57,180.28l-3.47,-0.09a4.3,4.3 0 0 1 -4.16,-4.87l25.63,-171.68a4.3,4.3 0 0 1 4.57,-3.64z"/>
  <rect id="svg_29" opacity="0.1" height="17.08" width="19" y="306.41" x="211.6"/>
  <polygon id="svg_30" opacity="0.1" points="298.1 483.65 298.1 488.62 250.93 489.88 250.93 483.65 298.1 483.65"/>
  <path id="svg_31" fill="#65617d" d="m381.35,312.36l0,168.2a4,4 0 0 1 -3.85,3.95l-191.65,5.1l-0.05,0a4,4 0 0 1 -3.95,-3.95l0,-173.3a4,4 0 0 1 3.95,-3.95l191.6,0a4,4 0 0 1 3.95,3.95z"/>
  <path id="svg_32" opacity="0.1" d="m185.85,308.41l0,181.2l-0.05,0a4,4 0 0 1 -3.95,-3.95l0,-173.3a4,4 0 0 1 3.95,-3.95l0.05,0z"/>
  <polygon id="svg_33" fill="#d4dfec" points="194.6 319.15 372.1 319.15 372.1 467.4 194.6 471.4 194.6 319.15"/>
  <rect id="svg_34" opacity="0.1" height="17.42" width="19" y="306.41" x="722.93"/>
  <polygon id="svg_35" opacity="0.1" points="726.1 483.65 726.1 490.06 678.93 488.8 678.93 483.65 726.1 483.65"/>
  <path id="svg_36" fill="#65617d" d="m788.35,312.36l0,173.3a4,4 0 0 1 -4,3.95l0,0l-191.69,-5.1a4,4 0 0 1 -3.85,-3.95l0,-168.2a4,4 0 0 1 3.95,-3.95l191.6,0a4,4 0 0 1 3.99,3.95z"/>
  <path id="svg_37" opacity="0.1" d="m788.35,312.36l0,173.3a4,4 0 0 1 -4,3.95l0,0l0,-181.2l0,0a4,4 0 0 1 4,3.95z"/>
  <polygon id="svg_38" fill="#d4dfec" points="775.6 319.15 598.1 319.15 598.1 467.4 775.6 471.4 775.6 319.15"/>
  <path id="svg_39" fill="#65617d" d="m583.85,312.36l0,168.2a4,4 0 0 1 -3.85,3.95l-191.65,5.1l0,0a4,4 0 0 1 -4,-3.95l0,-173.3a4,4 0 0 1 3.95,-3.95l191.6,0a4,4 0 0 1 3.95,3.95z"/>
  <polygon id="svg_40" fill="#d4dfec" points="397.1 319.15 574.6 319.15 574.6 467.4 397.1 471.4 397.1 319.15"/>
  <polygon id="svg_41" opacity="0.1" points="863.1 533.65 863.1 546.65 711.18 548.05 709.56 548.08 651.82 548.61 650.44 548.63 632.89 548.78 632.37 548.78 525.39 549.77 349.78 551.4 349.63 551.4 304.98 551.82 304.5 551.83 106.1 553.65 106.1 538.65 308.61 537.32 309.09 537.32 350.08 537.04 350.27 537.04 633.35 535.17 633.64 535.17 633.81 535.16 634.28 535.16 639.07 535.13 640.53 535.13 715.02 534.63 719.42 534.61 720.4 534.6 863.1 533.65"/>
  <circle id="svg_42" fill="#fbbebe" r="51.33" cy="272.16" cx="487.26"/>
  <path id="svg_43" fill="url(#dff037aa-d578-4bab-81e7-399360663117)" d="m304.4,552.18c0,-0.11 0.06,-0.23 0.1,-0.35c1,-3.59 2.78,-9.66 4.11,-14.51c0.17,-0.6 0.33,-1.19 0.48,-1.75c1.47,-5.47 4.33,-18.28 5.92,-26.27c0.56,-2.81 1,-5 1.09,-6.1c0.2,-1.69 3.21,-8.92 6.62,-17.23c2.39,-5.84 5,-12.22 6.91,-17.6a61.38,61.38 0 0 0 2.93,-9.85a5.1,5.1 0 0 0 0,-2.13a14.69,14.69 0 0 1 -0.48,-3.5l0,0c-0.23,-6.2 1.62,-16 4.48,-20.11c3.5,-5 6,-23.66 6,-23.66s5.18,0.75 6,-3.53a6.15,6.15 0 0 0 0.1,-1.4a7.41,7.41 0 0 0 -0.09,-1.11c-0.89,-6.24 14.72,-12.88 23.5,-14.31a19.67,19.67 0 0 1 3,-0.28a27.24,27.24 0 0 0 6.25,-1.44q1.4,-0.43 3,-1c3.68,-1.24 8.08,-2.88 12.75,-4.68c17.56,-6.81 38.82,-16 38.82,-16c0.15,-0.71 0.32,-1.39 0.51,-2.06a27.71,27.71 0 0 1 16.35,-18.93l0,0c0,-0.66 0,-1.33 0,-2c0,-3.45 -0.15,-7 -0.3,-10.54c0,-0.69 -0.06,-1.38 -0.1,-2.07c0,-0.2 0,-0.41 0,-0.61s0,-0.35 0,-0.52c0,-0.7 -0.07,-1.4 -0.11,-2.09l-0.18,-0.14a16.41,16.41 0 0 1 -3.9,-4.2a15.27,15.27 0 0 1 -1.42,-3c-1.25,-3.39 -1.54,-7.17 -2.38,-10.75l-0.18,-0.74a84,84 0 0 0 -4,-10.58c-2.21,-5.42 -3.91,-11 -5.6,-16.65q-1.54,-5.13 -3.11,-10.28l-1.58,-5.24c-0.3,-1 -0.6,-2 -0.83,-3l0,0a13.27,13.27 0 0 1 -0.26,-1.4a0,0 0 0 1 0,0a10,10 0 0 1 0.24,-4.61a32.09,32.09 0 0 1 1.32,-3a7.87,7.87 0 0 0 0.5,-1.38l0,0a3,3 0 0 0 0.08,-0.32a5.65,5.65 0 0 0 0.11,-1.08a18.46,18.46 0 0 0 -0.52,-3.89a0.07,0.07 0 0 1 0,-0.05a2.56,2.56 0 0 0 -0.05,-0.27a25.48,25.48 0 0 1 -0.36,-3a28.45,28.45 0 0 1 3.47,-15.57l0.19,-0.36a25.22,25.22 0 0 1 1.84,-2.78l0,0c0.31,-0.42 0.63,-0.82 1,-1.22c-1.4,1.34 -3.7,0.75 -5,-0.69a3.61,3.61 0 0 1 -0.55,-0.75a3.81,3.81 0 0 1 -0.23,-0.45c-0.05,-0.12 -0.09,-0.25 -0.13,-0.38c-0.7,-2.45 0.52,-5.06 2.12,-7.05a18.49,18.49 0 0 1 5.74,-4.7l0,0a3.84,3.84 0 0 1 0.4,-0.21a17.12,17.12 0 0 1 2.64,-1.06l0,0a15.06,15.06 0 0 1 1.63,-0.44l-3.71,-0.34l-1.5,-0.14a14.49,14.49 0 0 1 13,-10.91l1.08,0a11.73,11.73 0 0 1 1.57,0.13a4.44,4.44 0 0 1 -2.65,-4.33a14.41,14.41 0 0 0 9.19,3.06l0.38,0a30,30 0 0 1 -0.34,-3.27l0,0a0,0 0 0 1 0,0a0,0 0 0 1 0,0a33.19,33.19 0 0 1 0,-4.46a8.44,8.44 0 0 0 6.78,2.26l-2.08,-2.9a9.49,9.49 0 0 0 6.56,2.05l0.48,-0.05a7,7 0 0 0 1.19,-0.23l0.09,0c-0.19,-0.24 -0.36,-0.49 -0.53,-0.75l-0.06,-0.12a9.67,9.67 0 0 1 -1,-2.09a6.59,6.59 0 0 1 -0.24,-0.87l0,0a8.75,8.75 0 0 1 0.45,-5.45c3.23,2.7 6.77,6.39 11,3.6s4.37,-7.91 11,-7.39a10.2,10.2 0 0 1 8.41,6.12a6.75,6.75 0 0 1 7.67,-1.75a6.85,6.85 0 0 1 3.88,6.89c2.75,-0.69 5.71,-1.37 8.35,-0.33s4.34,4.41 2.84,6.66a1.43,1.43 0 0 1 -0.14,0.2c-1.23,1.59 -3.95,2.46 -3.66,4.46l0.42,0.3l1.3,0.94a0.05,0.05 0 0 1 0,0q7.65,5.52 14.9,11.6c2.48,2.08 5.12,4.58 5.29,7.83a8.64,8.64 0 0 1 -0.24,2.37l0,0c-0.16,0.78 -0.38,1.56 -0.55,2.34a19.51,19.51 0 0 0 -0.34,6.05l0,0c0.07,0.59 0.16,1.17 0.27,1.76c1.53,7.73 7.71,14.11 8.32,22l0,0.56a17.78,17.78 0 0 1 -0.07,2.53c-0.46,4.8 -2.68,9.41 -4.48,14c-0.11,0.28 -0.22,0.56 -0.32,0.84c-3.47,9 -5.47,18.59 -7,28.16a100.26,100.26 0 0 1 -2,10.09a26.73,26.73 0 0 1 -5.09,10.43a16.22,16.22 0 0 1 -3.36,3a18.67,18.67 0 0 1 -2.65,1.41s0,0 0,0.06c0.11,0.61 0.2,1.22 0.31,1.83c0.06,0.32 0.11,0.64 0.17,1l0,0a0.14,0.14 0 0 0 0,0.06c0.84,4.73 1.8,9.36 2.81,13.76l0.51,2.19c12.6,4.55 14.09,13.87 14.18,17.44a9.64,9.64 0 0 1 0,1.43s19,0.5 26.5,6a20.34,20.34 0 0 0 4.51,2.3a83,83 0 0 0 9.25,2.89c1.61,0.42 3.29,0.83 5,1.23c3,0.69 6.18,1.36 9.25,2c8.19,1.65 15.9,3 19.81,4c9.33,2.36 30.67,22.82 30.67,22.82s2.5,20.64 5,23.65s7,13.59 7,13.59l16.54,29.41l7,12.37l4.5,0c0.62,0 1.84,0.88 3.21,2.1c1.19,1.06 2.51,2.38 3.67,3.58l1.92,2.05l1.2,1.33s7.27,0.18 9.24,5.93c5.92,-0.17 13.19,0.22 18.28,2.5a14.14,14.14 0 0 1 2,1.08a8.68,8.68 0 0 1 4.13,5.66a8.34,8.34 0 0 1 0.18,1.44c0,0.57 0,1.14 0,1.7c-0.36,7.57 -5.29,13.87 -9.82,18.11l0.32,0.57s-0.15,0.36 -0.44,1c-0.08,0.19 -0.18,0.4 -0.29,0.64l0,0c-0.59,1.26 -1.53,3.15 -2.76,5.36a63.31,63.31 0 0 1 -9.57,13.17l-0.29,0.3l-57.74,0.53l-0.17,-0.2l-11.2,-13.36l-5.57,-6.64l-0.17,-0.21l-0.16,1.59l-0.54,5.3l-1.3,12.81l-0.07,0.64l0,0.17l-0.15,1.48l0.11,-1.48l-0.29,0l-107,1l-175.62,1.94l0,0.84l-0.14,0l0,-0.84l-44.75,0.48l-0.48,0.01z"/>
  <path id="svg_44" fill="#fbbebe" d="m538.6,377.16s-99.5,12 -90,0c3.44,-4.34 4.39,-17.2 4.2,-31.85c-0.06,-4.45 -0.22,-9.06 -0.45,-13.65c-1.1,-22 -3.75,-43.5 -3.75,-43.5s87,-41 77,-8.5c-4,13.13 -2.69,31.57 0.35,48.88c0.89,5.05 1.92,10 3,14.7a344.67,344.67 0 0 0 9.65,33.92z"/>
  <path id="svg_45" opacity="0.1" d="m538.6,377.16s-99.5,12 -90,0c3.44,-4.34 4.39,-17.2 4.2,-31.85c15.17,-6.48 34.47,-1.65 34.47,-1.65c20.32,-4.05 33.35,-3.26 41.68,-0.42a344.67,344.67 0 0 0 9.65,33.92z"/>
  <path id="svg_46" fill="#f70776" d="m349.74,552.53l0,-0.84l175.62,-1.91l107,-1l0.3,0l-0.11,1.48l0.15,-1.48l0.19,0l0,-0.17l1.37,-13.45l0.52,-5.09l0.16,-1.59l0.14,-1.33l6.18,-20.61l6.18,-20.58l5.2,-17.33l7.94,-26.48s-4.5,-10.5 -7,-13.5s-5,-23.5 -5,-23.5s-21.34,-20.33 -30.67,-22.67c-3.91,-1 -11.63,-2.33 -19.83,-4c-3.07,-0.62 -6.22,-1.28 -9.25,-2c-1.71,-0.39 -3.39,-0.8 -5,-1.21a87.91,87.91 0 0 1 -9.25,-2.86a20.7,20.7 0 0 1 -4.5,-2.29c-7.35,-5.39 -25.77,-6 -26.48,-6l0,0a0.42,0.42 0 0 1 0,-0.07l0,-0.09a10.26,10.26 0 0 0 0,-1.26c0,-0.4 0,-0.87 -0.09,-1.4c0,-0.16 0,-0.33 -0.07,-0.5c-0.05,-0.36 -0.11,-0.74 -0.2,-1.14a5,5 0 0 0 -0.12,-0.53a17.21,17.21 0 0 0 -1.25,-3.49c-0.07,-0.16 -0.16,-0.33 -0.24,-0.49a18.25,18.25 0 0 0 -1.7,-2.63c-0.13,-0.17 -0.27,-0.35 -0.42,-0.52a19.58,19.58 0 0 0 -2.72,-2.64c-0.27,-0.21 -0.55,-0.43 -0.84,-0.63a4.67,4.67 0 0 0 -0.51,-0.36l-0.89,-0.58l-0.83,-0.48c-0.73,-0.4 -1.5,-0.79 -2.34,-1.16c-0.26,-0.12 -0.54,-0.23 -0.82,-0.34s-0.72,-0.28 -1.09,-0.42l-0.06,0l-0.75,-0.3c-0.57,-0.19 -1.15,-0.36 -1.76,-0.53l-0.93,-0.24l-1,-0.23l-1,-0.21c-1,-0.2 -2.07,-0.38 -3.19,-0.52l-1.14,-0.14l-1.17,-0.12l-1.21,-0.1l-1.72,-0.1l-2,-0.07a124.68,124.68 0 0 0 -26.24,2.79a72.27,72.27 0 0 0 -18.26,-1.68l-0.87,0l-1,0.06l-0.64,0l-1.29,0.12c-0.43,0 -0.87,0.09 -1.3,0.15s-0.88,0.11 -1.31,0.18l-0.66,0.11c-0.65,0.11 -1.31,0.23 -2,0.37q-0.33,0.06 -0.66,0.15c-0.87,0.19 -1.74,0.42 -2.6,0.68c-0.43,0.12 -0.86,0.26 -1.29,0.41c-0.22,0.06 -0.43,0.14 -0.64,0.22l-0.64,0.23l-0.63,0.25l-0.75,0.3c-0.38,0.16 -0.75,0.33 -1.12,0.51c-0.21,0.09 -0.42,0.19 -0.62,0.3s-0.41,0.2 -0.6,0.31a27.75,27.75 0 0 0 -6.21,4.38l-0.51,0.49l-0.5,0.51c-0.17,0.17 -0.33,0.35 -0.49,0.53a23.82,23.82 0 0 0 -1.82,2.25c-0.16,0.21 -0.31,0.42 -0.46,0.64a26.69,26.69 0 0 0 -1.72,2.92c-0.13,0.24 -0.25,0.49 -0.37,0.73a32.7,32.7 0 0 0 -2,5.25q-0.28,1 -0.51,2s-21.17,9.34 -38.73,16.1c-4.67,1.8 -9.07,3.43 -12.75,4.66c-1.07,0.36 -2.07,0.69 -3,1a26.7,26.7 0 0 1 -6.25,1.44a19.67,19.67 0 0 0 -3,0.28c-8.07,1.31 -21.9,7 -23.41,12.71a3.69,3.69 0 0 0 -0.1,1.4s0,0.07 0,0.11c1,7 -6,6 -6,6s-2.5,18.5 -6,23.5c-2.53,3.6 -4.26,11.63 -4.48,17.69l0,0a19.61,19.61 0 0 0 0.44,5.63c0,0.05 0,0.1 0,0.14c0.4,1.34 -0.56,5 -2.19,9.69c-1.77,5.15 -4.35,11.55 -6.83,17.59c-3.74,9.12 -7.26,17.4 -7.48,19.22c-0.09,0.81 -0.35,2.26 -0.71,4.13c-1.46,7.62 -4.7,22.13 -6.3,28c-1.19,4.38 -2.92,10.38 -4.11,14.5c0,0.12 -0.07,0.24 -0.1,0.35l44.83,-0.44l0,0.84l0.14,0l-0.06,0z"/>
  <path id="svg_47" opacity="0.1" d="m366.1,434.66s57,29.5 77.5,26l-77.5,-26z"/>
  <path id="svg_48" opacity="0.1" d="m482.1,422.66s55.5,18 74,20.5s-74,-20.5 -74,-20.5z"/>
  <path id="svg_49" opacity="0.1" d="m543.66,364.74c-29,5.34 -83.6,4.19 -107.2,3.38c8.65,-31 50.83,-20.46 50.83,-20.46c52.21,-10.42 56.21,11.2 56.37,17.08z"/>
  <path id="svg_50" fill="#f70776" d="m543.66,362.74c-29,5.34 -83.6,4.19 -107.2,3.38c8.65,-31 50.83,-20.46 50.83,-20.46c52.21,-10.42 56.21,11.2 56.37,17.08z"/>
  <path id="svg_51" fill="#fbbebe" d="m697.6,499.41s34.16,-5.25 34.83,9.75s-17.42,25.48 -17.42,25.48l-17.41,-35.23z"/>
  <path id="svg_52" opacity="0.1" d="m525.95,328.54a47,47 0 0 1 -4.5,1.74c-10.78,3.72 -21.65,7.47 -33,8.83s-23.26,0.16 -33.16,-5.5a28.77,28.77 0 0 1 -3,-1.95c-1.1,-22 -3.75,-43.5 -3.75,-43.5s87,-41 77,-8.5c-3.98,13.13 -2.63,31.57 0.41,48.88z"/>
  <path id="svg_53" fill="#3f3d56" d="m473.18,191.93a9.47,9.47 0 0 1 -8.32,-1.75l2.08,2.89a8.47,8.47 0 0 1 -6.78,-2.25a34.08,34.08 0 0 0 0.32,7.75a14.52,14.52 0 0 1 -9.56,-3a4.42,4.42 0 0 0 2.64,4.31a14.34,14.34 0 0 0 -15.6,10.71l5.22,0.48a18.47,18.47 0 0 0 -10.44,6.37c-1.6,2 -2.82,4.56 -2.12,7s4.08,4 5.92,2.26a27.94,27.94 0 0 0 -6.1,22.79a14.47,14.47 0 0 1 0.46,5.26c-0.33,1.65 -1.37,3.08 -1.89,4.69c-1,2.92 -0.05,6.09 0.84,9l4.69,15.42c1.7,5.57 3.39,11.15 5.61,16.54a82.08,82.08 0 0 1 4,10.51c1.26,4.84 1.31,10.14 4,14.37a19.93,19.93 0 0 0 7.18,6.33c9.89,5.66 21.84,6.86 33.16,5.5s22.18,-5.11 32.95,-8.83a31,31 0 0 0 6.84,-3c7.45,-4.88 9.11,-14.86 10.5,-23.65c1.55,-9.8 3.62,-19.58 7.29,-28.8c2.18,-5.49 5,-11.06 4.52,-16.94c-0.61,-7.81 -6.79,-14.14 -8.32,-21.82a19,19 0 0 1 0.07,-7.77a17.66,17.66 0 0 0 0.79,-4.7c-0.17,-3.22 -2.81,-5.7 -5.29,-7.77q-8.07,-6.74 -16.66,-12.74c-0.29,-2 2.43,-2.86 3.66,-4.44c1.74,-2.23 -0.06,-5.77 -2.7,-6.81s-5.6,-0.36 -8.35,0.33a6.59,6.59 0 0 0 -11.55,-5.11a10.2,10.2 0 0 0 -8.42,-6.08c-6.63,-0.52 -6.76,4.55 -11,7.34s-7.74,-0.89 -11,-3.57a9.28,9.28 0 0 0 1.36,9.18z"/>
  <path id="svg_54" fill="#f70776" d="m722.93,529.41s-0.89,2.12 -2.53,5.19a69,69 0 0 1 -9,13.17l-0.27,0.29l-1.62,0l-57.74,0.53l-1.38,0l-0.17,-0.2l-11.2,-13.29l-4.22,-5.01l-0.17,-0.21l-0.36,-0.42l-0.2,-0.24l-0.26,-0.31l-8.21,-9.74l3,-12.5l5.11,-21.06l0.13,-0.51l1,-4l0.71,-3l2.38,-9.78l8.16,-33.65l14.5,7.5l15.29,27l8.21,14.5l4.5,0c0.85,0 2.8,1.64 4.76,3.53c0.7,0.67 1.4,1.38 2,2c1.78,1.84 3.19,3.42 3.19,3.42s7.29,0.16 9.25,5.9a7,7 0 0 1 0.25,0.85a40.3,40.3 0 0 0 2.53,6.56c1.29,2.81 2.91,6 4.55,9.19c3.05,5.85 6.15,11.42 7.29,13.44l0.14,0.25l0.38,0.6z"/>
  <path id="svg_55" opacity="0.1" d="m637.03,484.26l-0.1,1.43l0,0.1l-0.17,2.3l-1.33,18.51l-1.61,22.3l-0.46,6.28l-1,13.44l0,0.17l-107,1l-175.59,1.9l0,0.84l-0.14,0l0,-0.84l0,-0.28l0.45,-14.36l0.86,-28.06l0.74,-23.79l0.07,-2.37a10.53,10.53 0 0 1 11.42,-10.17c4.72,0.4 10.85,0.89 18.18,1.41l3,0.22c42.33,2.94 120.56,6.74 199.5,2c1.66,-0.09 3.33,-0.19 5,-0.31c12.24,-0.77 24.47,-1.76 36.58,-3a10.53,10.53 0 0 1 11.6,11.23l0,0.05z"/>
  <path id="svg_56" fill="#3f3d56" d="m349.74,552.53l0,-0.84l175.62,-1.91l107,-1l0.3,0l0,-0.17l1,-13.44l0.43,-6l1.64,-22.61l1.29,-17.9l0,-0.44a10.62,10.62 0 0 0 -0.11,-2.47a0.3,0.3 0 0 0 0,-0.1a10.39,10.39 0 0 0 -2,-4.64a10.54,10.54 0 0 0 -9.42,-4c-12.11,1.24 -24.34,2.23 -36.58,3c-1.67,0.12 -3.34,0.22 -5,0.31c-78.94,4.69 -157.17,0.89 -199.5,-2l-3,-0.22c-7.33,-0.52 -13.46,-1 -18.18,-1.41a10.54,10.54 0 0 0 -11.24,8.53a11,11 0 0 0 -0.18,1.64l-0.68,22.16l-0.93,28.07l-0.44,14.36l0,0.28l0,0.84l-0.02,-0.04z"/>
  <path id="svg_57" opacity="0.1" d="m637.33,491.27l-1.23,15.33l-1.83,22.85l-0.46,5.72l-1,12.81l-0.06,0.64l0,0.17l0,0l-0.15,1.48l0.11,-1.48l-0.29,0l-107,1l-175.65,1.9l0,-0.28l0.49,-14.36l1,-28.06l0.64,-18.65a6.36,6.36 0 0 1 3.06,-5.25a6.25,6.25 0 0 1 3.78,-0.9c2.1,0.17 4.68,0.37 7.69,0.59c4.89,0.36 10.92,0.78 17.94,1.22c13,0.82 29.31,1.7 48,2.42c52,2 122.2,2.67 188.88,-3.17c3,-0.26 6.1,-0.55 9.13,-0.84a6.26,6.26 0 0 1 3.48,0.66a5.16,5.16 0 0 1 0.86,0.54a6.14,6.14 0 0 1 2,2.46a3.56,3.56 0 0 1 0.25,0.61a6.28,6.28 0 0 1 0.36,2.59z"/>
  <path id="svg_58" opacity="0.1" d="m298.1,504.96l0,3.19a6.13,6.13 0 0 1 -3.5,5.54l-40.1,0.77a6.12,6.12 0 0 1 -3.57,-5.57l0,-3l47.17,-0.93z"/>
  <polygon id="svg_59" fill="#3f3d56" points="298.6 515.57 246.35 516.57 246.35 507.9 298.6 506.9 298.6 515.57"/>
  <polygon id="svg_60" opacity="0.1" points="298.6 515.57 246.35 516.57 246.35 507.9 298.6 506.9 298.6 515.57"/>
  <polygon id="svg_61" fill="#3f3d56" points="300.6 515.57 248.35 516.57 248.35 507.9 300.6 506.9 300.6 515.57"/>
  <g id="svg_62" opacity="0.1">
   <path id="svg_63" d="m473.59,188.65a9.75,9.75 0 0 1 -1.89,-4.34a9.49,9.49 0 0 0 0.42,4.6a9,9 0 0 0 1.47,-0.26z"/>
   <path id="svg_64" d="m460.89,195.29a35.12,35.12 0 0 1 -0.37,-3.7c0,1.23 0,2.47 0,3.71l0.37,-0.01z"/>
   <path id="svg_65" d="m542.39,228.66a18.34,18.34 0 0 1 0.36,-2.65a18,18 0 0 0 0.8,-4.69a6.16,6.16 0 0 0 -0.16,-1.06c-0.17,0.92 -0.44,1.84 -0.64,2.75a19.14,19.14 0 0 0 -0.36,5.65z"/>
   <path id="svg_66" d="m521.59,197.76l1.09,0.79a19.71,19.71 0 0 0 2.57,-2.22a3.67,3.67 0 0 0 0.38,-3.64a3,3 0 0 1 -0.38,0.64c-1.23,1.58 -3.95,2.45 -3.66,4.43z"/>
   <path id="svg_67" d="m439.42,207.38a12.32,12.32 0 0 0 -0.87,2.28a18.16,18.16 0 0 1 5,-1.89l-4.13,-0.39z"/>
   <path id="svg_68" d="m453.21,196.5a14.83,14.83 0 0 1 -1.88,-1.23a4.25,4.25 0 0 0 0.09,1.18a11.86,11.86 0 0 1 1.79,0.05z"/>
   <path id="svg_69" d="m550.98,255.42c-0.41,4.85 -2.67,9.52 -4.5,14.12c-3.67,9.22 -5.74,19 -7.29,28.81c-1.39,8.79 -3,18.77 -10.5,23.64a30,30 0 0 1 -6.83,3c-10.78,3.73 -21.65,7.47 -33,8.83s-23.26,0.17 -33.16,-5.49a20,20 0 0 1 -7.18,-6.33c-2.67,-4.23 -2.72,-9.53 -4,-14.37a82.21,82.21 0 0 0 -4,-10.52c-2.21,-5.38 -3.91,-11 -5.6,-16.53q-2.35,-7.71 -4.69,-15.43a28.81,28.81 0 0 1 -1.14,-4.75c-0.39,2.56 0.37,5.24 1.14,7.75q2.34,7.73 4.69,15.43c1.69,5.57 3.39,11.15 5.6,16.53a82.21,82.21 0 0 1 4,10.52c1.26,4.84 1.31,10.14 4,14.37a20,20 0 0 0 7.18,6.33c9.9,5.66 21.84,6.85 33.16,5.49s22.18,-5.1 33,-8.83a30,30 0 0 0 6.83,-3c7.45,-4.87 9.11,-14.85 10.5,-23.64c1.55,-9.81 3.62,-19.59 7.29,-28.81c2.18,-5.48 5,-11.05 4.52,-16.94c0,-0.06 -0.02,-0.12 -0.02,-0.18z"/>
   <path id="svg_70" d="m431.29,251.55s0,-0.07 0,-0.11a14,14 0 0 0 -0.46,-5.25a26.59,26.59 0 0 1 -0.39,-3.32a27.35,27.35 0 0 0 0.39,6.32c0.16,0.78 0.34,1.57 0.46,2.36z"/>
   <path id="svg_71" d="m434.34,227.09a27.74,27.74 0 0 1 2.61,-3.67c-1.83,1.75 -5.21,0.19 -5.92,-2.24a5.83,5.83 0 0 0 0,3a4.39,4.39 0 0 0 3.31,2.91z"/>
  </g>
  <path id="svg_72" opacity="0.1" d="m684.1,483.66s3.17,11.5 0,21.5s0,-21.5 0,-21.5z"/>
  <path id="svg_73" opacity="0.1" d="m697.6,495.39s1.33,14.6 -1.67,17.19s1.67,-17.19 1.67,-17.19z"/>
  <line id="svg_74" stroke-width="2" stroke-miterlimit="10" stroke="#f70776" fill="none" y2="341.86" x2="300.6" y1="342.86" x1="198.99"/>
  <line id="svg_75" stroke-width="2" stroke-miterlimit="10" stroke="#f70776" fill="none" y2="354.34" x2="300.6" y1="355.33" x1="198.99"/>
  <line id="svg_76" stroke-width="2" stroke-miterlimit="10" stroke="#f70776" fill="none" y2="366.81" x2="300.6" y1="367.81" x1="198.99"/>
 </g>
</svg>